# Blender v2.72 (sub 0) OBJ File: 'Quint Help Part 2.blend'
# www.blender.org
mtllib testobject2.mtl
o Cube
v 1.000000 -1.000000 -4.000000
v 1.000000 -1.000000 -2.000000
v -1.000000 -1.000000 -2.000000
v -1.000000 -1.000000 -4.000000
v 1.000000 1.000000 -4.000000
v 1.000000 1.000000 -2.000000
v -1.000000 1.000000 -2.000000
v -1.000000 1.000000 -4.000000
vt 0.000000 0.000000
vt 0.250000 0.000000
vt 0.250000 0.250000
vt 0.500000 0.250000
vt 0.500000 0.000000
vt 0.750000 0.000000
vt 1.000000 0.250000
vt 0.750000 0.250000
vt 0.500000 0.250000
vt 0.500000 0.500000
vt 0.250000 0.500000
vt 0.250000 0.500000
vt 0.000000 0.500000
vt 0.000000 0.250000
vt 0.000000 0.250000
vt 1.000000 0.000000
vt 0.250000 0.250000
vt 0.250000 0.250000
vn 0.000000 -1.000000 0.000000
vn 0.000000 1.000000 0.000000
vn 1.000000 -0.000000 0.000000
vn -0.000000 -0.000000 1.000000
vn -1.000000 -0.000000 -0.000000
vn 0.000000 0.000000 -1.000000
usemtl Material.001
s off
f 2/1/1 3/2/1 4/3/1
f 8/4/2 7/5/2 6/6/2
f 1/7/3 5/8/3 6/6/3
f 2/9/4 6/10/4 7/11/4
f 7/5/5 8/4/5 4/3/5
f 1/12/6 4/13/6 8/14/6
f 1/15/1 2/1/1 4/3/1
f 5/8/2 8/4/2 6/6/2
f 2/16/3 1/7/3 6/6/3
f 3/17/4 2/9/4 7/11/4
f 3/2/5 7/5/5 4/3/5
f 5/18/6 1/12/6 8/14/6
